<svg width="1397" height="612" viewBox="0 0 1397 612" fill="none" xmlns="http://www.w3.org/2000/svg">
<g opacity="0.25">
<path d="M1086.99 32.9139C1092.41 13.4579 1110.14 0 1130.33 0H1250.54C1280.37 0 1301.95 28.5106 1293.84 57.2264L1146.47 579.226C1141 598.613 1123.31 612 1103.17 612H984.787C955.009 612 933.443 583.597 941.44 554.914L1086.99 32.9139Z" fill="#DA888A"/>
<path d="M250.463 32.9139C255.888 13.4579 273.612 0 293.81 0H414.013C443.851 0 465.427 28.5106 457.32 57.2264L309.95 579.226C304.477 598.613 286.786 612 266.642 612H148.264C118.486 612 96.9193 583.597 104.917 554.914L250.463 32.9139Z" fill="#C893DF"/>
<path d="M460.022 32.9139C465.447 13.4579 483.17 0 503.369 0H623.571C653.41 0 674.986 28.5106 666.879 57.2264L519.508 579.226C514.035 598.613 496.345 612 476.201 612H357.822C328.044 612 306.478 583.597 314.476 554.914L460.022 32.9139Z" fill="#84BCEE"/>
<path d="M668.725 32.9139C674.15 13.4579 691.874 0 712.072 0H832.274C862.113 0 883.689 28.5106 875.582 57.2264L728.211 579.226C722.738 598.613 705.048 612 684.904 612H566.525C536.748 612 515.181 583.597 523.179 554.914L668.725 32.9139Z" fill="#E5CC95"/>
<path d="M878.284 32.9139C883.709 13.4579 901.432 0 921.63 0H1041.83C1071.67 0 1093.25 28.5106 1085.14 57.2264L937.77 579.226C932.297 598.613 914.607 612 894.463 612H776.084C746.306 612 724.74 583.597 732.737 554.914L878.284 32.9139Z" fill="#AECB92"/>
</g>
<circle cx="519" cy="310" r="159" fill="#393939" stroke="black" stroke-width="2"/>
<path d="M467.667 364C457.222 364 447.833 361.667 439.5 357C431.278 352.333 424.778 346 420 338C415.333 329.889 413 320.889 413 311C413 301.556 415.278 293 419.833 285.333C424.389 277.556 430.5 271.389 438.167 266.833C445.944 262.278 454.5 260 463.833 260C473.056 260 481.5 262.222 489.167 266.667C496.833 271 502.944 276.889 507.5 284.333C512.056 291.778 514.333 300.222 514.333 309.667V317H449C446.111 317 443.167 316.889 440.167 316.667C437.167 316.444 434.222 316.111 431.333 315.667C432.556 324.556 436.556 332 443.333 338C450.222 344 458.389 347 467.833 347C474.167 347 480.056 345.556 485.5 342.667C490.944 339.778 495.333 335.944 498.667 331.167L503.667 351.667C498.889 355.556 493.389 358.611 487.167 360.833C481.056 362.944 474.556 364 467.667 364ZM430.833 303.5C436.833 302.5 442.889 302 449 302H482.167C484.611 302 487 302.111 489.333 302.333C491.778 302.444 494.222 302.611 496.667 302.833C495.111 295.056 491.222 288.667 485 283.667C478.778 278.556 471.722 276 463.833 276C455.722 276 448.611 278.722 442.5 284.167C436.389 289.5 432.5 295.944 430.833 303.5ZM519.797 362L554.964 309L523.63 262H544.63L554.297 277.333C556.408 280.556 558.464 283.944 560.464 287.5C562.575 290.944 564.408 294.5 565.964 298.167C567.63 294.5 569.464 290.944 571.464 287.5C573.575 284.056 575.686 280.667 577.797 277.333L587.297 262H607.964L576.63 309L611.797 362H590.464L576.797 340.167C574.797 336.944 572.797 333.722 570.797 330.5C568.797 327.167 567.019 323.722 565.464 320.167C563.908 323.722 562.13 327.167 560.13 330.5C558.13 333.722 556.13 336.944 554.13 340.167L540.464 362H519.797Z" fill="#ECECEC"/>
<circle cx="1237" cy="310" r="159" fill="#78B744" stroke="black" stroke-width="2"/>
<path d="M1236.96 422.582C1233.96 422.582 1230.91 421.776 1228.27 420.254L1200.65 403.916C1196.53 401.588 1198.55 400.783 1199.89 400.335C1205.4 398.41 1206.52 398.007 1212.38 394.65C1213.01 394.292 1213.81 394.426 1214.44 394.829L1235.66 407.408C1236.42 407.855 1237.49 407.855 1238.21 407.408L1320.89 359.69C1321.65 359.243 1322.14 358.347 1322.14 357.452V262.018C1322.14 261.078 1321.65 260.227 1320.84 259.735L1238.21 212.063C1237.45 211.615 1236.42 211.615 1235.66 212.063L1153.07 259.78C1152.26 260.227 1151.77 261.123 1151.77 262.063V357.452C1151.77 358.347 1152.26 359.243 1153.07 359.646L1175.72 372.716C1188.03 378.849 1195.55 371.642 1195.55 364.346V270.165C1195.55 268.822 1196.62 267.792 1197.97 267.792H1208.44C1209.74 267.792 1210.86 268.822 1210.86 270.165V364.39C1210.86 380.774 1201.91 390.174 1186.37 390.174C1181.58 390.174 1177.82 390.174 1167.35 384.981L1145.68 372.493C1140.31 369.404 1137 363.63 1137 357.407V262.018C1137 255.841 1140.31 250.022 1145.68 246.933L1228.27 199.216C1233.51 196.261 1240.45 196.261 1245.64 199.216L1328.32 246.978C1333.69 250.066 1337 255.841 1337 262.063V357.452C1337 363.63 1333.69 369.404 1328.32 372.537L1245.64 420.254C1243 421.776 1240 422.582 1236.96 422.582ZM1303.7 328.535C1303.7 310.675 1291.61 305.93 1266.23 302.573C1240.54 299.171 1237.94 297.425 1237.94 291.427C1237.94 286.458 1240.13 279.834 1259.16 279.834C1276.12 279.834 1282.39 283.504 1284.99 294.963C1285.21 296.038 1286.19 296.843 1287.31 296.843H1298.06C1298.73 296.843 1299.35 296.575 1299.8 296.082C1300.25 295.59 1300.47 294.919 1300.43 294.247C1298.77 274.507 1285.66 265.33 1259.16 265.33C1235.57 265.33 1221.51 275.268 1221.51 291.964C1221.51 310.048 1235.52 315.062 1258.13 317.3C1285.21 319.941 1287.31 323.925 1287.31 329.252C1287.31 338.473 1279.88 342.412 1262.47 342.412C1240.58 342.412 1235.79 336.906 1234.18 326.029C1234 324.865 1233.02 324.014 1231.81 324.014H1221.11C1219.77 324.014 1218.74 325.089 1218.74 326.387C1218.74 340.308 1226.3 356.915 1262.51 356.915C1288.66 356.87 1303.7 346.53 1303.7 328.535Z" fill="#ECECEC"/>
<circle cx="878" cy="310" r="159" fill="#24618E" stroke="black" stroke-width="2"/>
<path d="M956.1 267.594C953.4 266.694 950.7 265.844 948 265.044C948.45 263.194 948.85 261.344 949.25 259.494C955.4 229.694 951.35 205.744 937.7 197.844C924.55 190.294 903.1 198.144 881.4 217.044C879.25 218.894 877.15 220.844 875.15 222.794C873.8 221.494 872.4 220.194 871 218.944C848.25 198.744 825.45 190.244 811.8 198.194C798.7 205.794 794.8 228.344 800.3 256.544C800.85 259.344 801.45 262.094 802.15 264.894C798.95 265.794 795.8 266.794 792.85 267.844C766.15 277.094 747 291.694 747 306.794C747 322.394 767.4 338.044 795.15 347.544C797.4 348.294 799.65 349.044 801.95 349.694C801.2 352.694 800.55 355.644 799.95 358.694C794.7 386.444 798.8 408.444 811.9 415.994C825.4 423.794 848.1 415.794 870.2 396.444C871.95 394.894 873.7 393.294 875.45 391.594C877.65 393.744 879.95 395.794 882.25 397.794C903.65 416.194 924.8 423.644 937.85 416.094C951.35 408.294 955.75 384.644 950.05 355.844C949.6 353.644 949.1 351.394 948.55 349.094C950.15 348.644 951.7 348.144 953.25 347.644C982.1 338.094 1003 322.644 1003 306.794C1003 291.644 983.3 276.944 956.1 267.594ZM888.45 225.144C907.05 208.944 924.4 202.594 932.3 207.144C940.75 211.994 944 231.594 938.7 257.344C938.35 259.044 938 260.694 937.55 262.344C926.45 259.844 915.2 258.044 903.9 257.044C897.4 247.744 890.3 238.844 882.6 230.494C884.55 228.644 886.45 226.894 888.45 225.144ZM830.6 332.744C833.15 337.094 835.75 341.444 838.5 345.694C830.7 344.844 822.95 343.594 815.3 341.944C817.5 334.744 820.25 327.294 823.45 319.694C825.75 324.094 828.1 328.444 830.6 332.744ZM815.45 272.594C822.65 270.994 830.3 269.694 838.25 268.694C835.6 272.844 833 277.094 830.55 281.394C828.1 285.644 825.7 289.994 823.45 294.394C820.3 286.944 817.65 279.644 815.45 272.594ZM829.15 307.044C832.45 300.144 836.05 293.394 839.85 286.744C843.65 280.094 847.75 273.644 852.05 267.294C859.55 266.744 867.2 266.444 875 266.444C882.8 266.444 890.5 266.744 897.95 267.294C902.2 273.594 906.25 280.044 910.1 286.644C913.95 293.244 917.55 299.994 920.95 306.844C917.6 313.744 914 320.544 910.15 327.244C906.35 333.894 902.3 340.344 898.05 346.744C890.6 347.294 882.85 347.544 875 347.544C867.15 347.544 859.55 347.294 852.2 346.844C847.85 340.494 843.75 333.994 839.9 327.344C836.05 320.694 832.5 313.944 829.15 307.044ZM919.45 332.644C922 328.244 924.4 323.794 926.75 319.294C929.95 326.544 932.75 333.894 935.2 341.444C927.45 343.194 919.6 344.544 911.7 345.444C914.4 341.244 916.95 336.944 919.45 332.644ZM926.65 294.394C924.3 289.994 921.9 285.594 919.4 281.294C916.95 277.044 914.4 272.844 911.75 268.694C919.8 269.694 927.5 271.044 934.7 272.694C932.4 280.094 929.7 287.294 926.65 294.394ZM875.1 238.144C880.35 243.844 885.3 249.844 889.9 256.044C880 255.594 870.05 255.594 860.15 256.044C865.05 249.594 870.1 243.594 875.1 238.144ZM817.1 207.494C825.5 202.594 844.15 209.594 863.8 226.994C865.05 228.094 866.3 229.294 867.6 230.494C859.85 238.844 852.7 247.744 846.15 257.044C834.85 258.044 823.65 259.794 812.55 262.244C811.9 259.694 811.35 257.094 810.8 254.494C806.1 230.294 809.2 212.044 817.1 207.494ZM804.85 339.294C802.75 338.694 800.7 338.044 798.65 337.344C788 333.994 775.9 328.694 767.15 321.744C762.1 318.244 758.7 312.844 757.75 306.794C757.75 297.644 773.55 285.944 796.35 277.994C799.2 276.994 802.1 276.094 805 275.244C808.4 286.094 812.5 296.744 817.25 307.044C812.45 317.494 808.3 328.294 804.85 339.294ZM863.15 388.294C854.9 395.844 845.35 401.844 834.95 405.944C829.4 408.594 823 408.844 817.3 406.594C809.35 401.994 806.05 384.344 810.55 360.594C811.1 357.794 811.7 354.994 812.4 352.244C823.6 354.644 834.9 356.294 846.35 357.144C852.95 366.494 860.2 375.444 867.95 383.844C866.35 385.394 864.75 386.894 863.15 388.294ZM875.4 376.144C870.3 370.644 865.2 364.544 860.25 357.994C865.05 358.194 870 358.294 875 358.294C880.15 358.294 885.2 358.194 890.2 357.944C885.6 364.294 880.65 370.344 875.4 376.144ZM940.75 391.144C940.3 397.244 937.3 402.944 932.5 406.794C924.55 411.394 907.6 405.394 889.3 389.694C887.2 387.894 885.1 385.944 882.95 383.944C890.6 375.494 897.65 366.544 904.05 357.144C915.5 356.194 926.9 354.444 938.15 351.894C938.65 353.944 939.1 355.994 939.5 357.994C941.95 368.794 942.35 380.044 940.75 391.144ZM949.85 337.394C948.45 337.844 947.05 338.294 945.6 338.694C942.1 327.794 937.8 317.144 932.85 306.794C937.65 296.594 941.7 286.094 945.1 275.344C947.7 276.094 950.2 276.894 952.6 277.694C975.9 285.694 992.25 297.594 992.25 306.694C992.25 316.494 974.8 329.144 949.85 337.394ZM875 329.894C887.65 329.894 897.9 319.644 897.9 306.994C897.9 294.344 887.65 284.094 875 284.094C862.35 284.094 852.1 294.344 852.1 306.994C852.1 319.644 862.35 329.894 875 329.894Z" fill="#62D9FB"/>
<circle cx="160" cy="310" r="159" fill="#ECECEC" stroke="black" stroke-width="2"/>
<path d="M193 298.056C193 354.941 159.5 401.056 159.5 401.056C161 401.056 126 354.941 126 298.056C126 241.17 161.5 189.056 159.5 191.056C159.5 191.056 193 241.17 193 298.056Z" fill="#4D7A39"/>
<path d="M163.484 408.056C163.484 429.056 161.917 429.056 159.984 429.056C158.051 429.056 156.484 429.056 156.484 408.056C156.484 396.458 158.051 387.056 159.984 387.056C161.917 387.056 163.484 396.458 163.484 408.056Z" fill="#4D7A39"/>
<path d="M163.484 408.056C163.484 429.056 161.917 429.056 159.984 429.056C158.051 429.056 156.484 429.056 156.484 408.056C156.484 396.458 158.051 387.056 159.984 387.056C161.917 387.056 163.484 396.458 163.484 408.056Z" fill="#4D7A39"/>
</svg>
